<svg id="kiwi" xmlns="http://www.w3.org/2000/svg" viewBox="0 0 1080 1080"><defs><style>@font-face {font-family: Abandoned;src: url(../fonts/Abandoned.ttf);}.cls-1{font-size:624.69px;stroke:#000;letter-spacing:0.04em;}.cls-1,.cls-10,.cls-3{stroke-miterlimit:10;}.cls-1,.cls-10{stroke-width:3px;}.cls-1,.cls-9{font-family:Abandoned-Regular, Abandoned;}.cls-2{font-size:961.07px;letter-spacing:0.04em;}.cls-3{fill:#eeb584;stroke-width:5px;}.cls-10,.cls-3{stroke:#8a360d;}.cls-11,.cls-4{fill:#8a360d;}.cls-4,.cls-8{opacity:0.5;}.cls-5{fill:#52de63;}.cls-6{fill:#009408;}.cls-7,.cls-8{fill:#fff;}.cls-9{font-size:803.1px;letter-spacing:0.02em;}.cls-10{fill:#fee5cc;}.cls-12{fill:#8a3600;opacity:0.35;}</style></defs><text id="texte" class="cls-1" transform="translate(-813.73 891.04)"><tspan xml:space="preserve">  </tspan><tspan class="cls-2" x="624.68" y="0"> </tspan></text><ellipse id="head" class="cls-3" cx="662.59" cy="406" rx="161.55" ry="172.57" transform="translate(141.14 982.15) rotate(-79.35)"/><path id="shade" class="cls-4" d="M830.26,373.4c2.22,9.39,13,59.24-14.4,108.72C789.89,529,737.14,562,722.26,552A13.59,13.59,0,0,1,717,539.7c1.48-9.94,19.06-12.91,24.18-17.08,18.43-15,53.2-43.34,64.62-90.62,12.43-51.47-10.58-93.26-16.79-104.13-31.31-54.82-86.62-75.48-85.65-77.29s60.47,12.54,99.57,65.22A161.07,161.07,0,0,1,830.26,373.4Z"/><path id="colour" class="cls-5" d="M509.57,886.56c-111.92.14-168.66-.48-207.22-34.38C245.27,802,244,719.05,243.42,678.7c-.61-41-1.63-109.06,43.53-159.31,50.7-56.41,128.43-55.74,222.46-54.94,94.34.82,186.65,1.61,235.79,66.5,33.29,44,31.69,97.42,30.2,147.75-1.52,51-3.72,124.68-53.65,171.35C682.92,886.34,625.14,886.42,509.57,886.56Z"/><path id="shade-2" data-name="shade" class="cls-6" d="M510.55,888.46c135.23.92,162.27-4.1,191.21-23.54,10-6.72,40-27.37,59.26-65.68,13.17-26.18,16-49.86,21-93.16,2-17,4.44-38.76,2.92-67.66-1.07-20.2-2.44-43.26-11.68-70.6-10.57-31.26-29.48-62.35-34.71-60.3-6,2.34,13.38,45.23,18.65,100,2,21.1,13.8,143.15-55.46,204.44-37.62,33.29-86.39,33-183.92,32.36-103.78-.66-164.09-1-207.26-42.65-63.74-61.43-50.36-174.39-58.39-173.56-5.27.55-4.48,48.61-2.92,76.49,2.72,48.42,4.14,73.6,19,101.48,16.28,30.59,39.68,47.43,49.63,54.42C349.06,882.43,379.12,887.56,510.55,888.46Z"/><path id="center" class="cls-7" d="M599.05,684c.18,17,.52,49.53-22.82,68.67-17.82,14.6-39.83,13.51-58.44,12.58-18.38-.91-46.61-2.32-65.33-23.88C436.07,722.51,436.36,699,436.54,684c.16-13.8.61-50.44,26.67-69.72,15.24-11.27,32.15-11.39,54.58-11.54,22.63-.16,40.18-.28,55.55,11.15C598.51,632.62,598.89,668.26,599.05,684Z"/><polygon class="cls-8" points="517.79 497.06 513.03 605.43 522.56 605.43 517.79 497.06"/><polygon class="cls-8" points="517.92 859 522.81 763.43 513.03 763.43 517.92 859"/><polygon class="cls-8" points="662.7 524.82 563.26 617.53 570 624.27 662.7 524.82"/><polygon class="cls-8" points="359.41 828.11 458.86 735.41 452.12 728.67 359.41 828.11"/><polygon class="cls-8" points="369.95 527.33 462.65 626.78 469.39 620.04 369.95 527.33"/><polygon class="cls-8" points="673.24 832.63 580.53 733.18 573.79 739.92 673.24 832.63"/><polygon class="cls-8" points="326.15 679.95 438.54 684.71 438.54 675.18 326.15 679.95"/><polygon class="cls-8" points="708.36 675.18 595.96 670.41 595.96 679.95 708.36 675.18"/><ellipse cx="506.52" cy="592" rx="5.78" ry="14.43"/><ellipse cx="530.97" cy="804.75" rx="5.78" ry="14.43"/><ellipse cx="530.97" cy="552.98" rx="14.43" ry="5.78" transform="translate(-40.29 1064.24) rotate(-87.99)"/><ellipse cx="602.32" cy="614.7" rx="14.43" ry="5.78" transform="translate(-258.24 605.95) rotate(-45)"/><ellipse cx="569.84" cy="594.81" rx="14.43" ry="5.78" transform="translate(-230.2 790.9) rotate(-60)"/><ellipse cx="500.74" cy="783.01" rx="14.43" ry="5.78" transform="translate(-299.34 1255.99) rotate(-87.99)"/><ellipse cx="595.02" cy="775.31" rx="5.78" ry="14.43" transform="translate(-330.01 459.9) rotate(-33.67)"/><ellipse cx="418.11" cy="690" rx="14.43" ry="5.78"/><ellipse cx="606.86" cy="706.56" rx="5.78" ry="14.43" transform="translate(-228.21 1119.08) rotate(-75.63)"/><ellipse cx="394.33" cy="656.3" rx="5.78" ry="14.43" transform="matrix(0.13, -0.99, 0.99, 0.13, -308.74, 959.49)"/><ellipse cx="438.54" cy="740.94" rx="14.43" ry="5.78" transform="translate(-387.47 498.01) rotate(-42.99)"/><ellipse cx="446.71" cy="788.78" rx="14.43" ry="5.78" transform="translate(-458.29 840.7) rotate(-63.76)"/><ellipse cx="614.65" cy="656.32" rx="14.43" ry="5.78" transform="translate(-121.32 139.7) rotate(-11.81)"/><ellipse cx="615.08" cy="738.05" rx="5.78" ry="14.43" transform="translate(-308.95 1001.11) rotate(-66.08)"/><ellipse cx="425.87" cy="606.43" rx="5.78" ry="14.43" transform="translate(-314.64 634.1) rotate(-57.06)"/><ellipse cx="470.18" cy="577.57" rx="5.78" ry="14.43" transform="translate(-108.26 108.46) rotate(-11.81)"/><text class="cls-9" transform="translate(242.8 432.12) rotate(90)">o</text><path id="nose" class="cls-10" d="M610.72,635.48l59.85-165.87a23.32,23.32,0,0,0-10.38-28.84c-1.93.17-10.85,1.18-17.14,8.79a24.43,24.43,0,0,0-5.22,11.68Q624.27,548.36,610.72,635.48Z"/><path class="cls-11" d="M713.53,253.65a322.53,322.53,0,0,1,9.27-50.27q1.89-7,4.08-14c.58-1.85-2.32-2.64-2.89-.8a329.55,329.55,0,0,0-11.67,50.69q-1.05,7.19-1.79,14.4c-.2,1.92,2.8,1.91,3,0Z"/><path class="cls-11" d="M717.34,252c6.8-13,21.13-19.32,34.58-23.13,4.42-1.25,8.89-2.3,13.36-3.35,1.88-.44,1.09-3.34-.79-2.89-15,3.53-31.12,7.33-42.58,18.39a37,37,0,0,0-7.16,9.47c-.89,1.71,1.69,3.22,2.59,1.51Z"/><path id="shade-3" data-name="shade" class="cls-12" d="M588.67,393.05c-10.55-2.7-23,4-25.32,15s3.71,22.43,15,25.32c10.55,2.7,23-4,25.32-15S600,395.94,588.67,393.05Z"/><path id="shade-4" data-name="shade" class="cls-12" d="M737.66,432c-10.54-2.69-23,4-25.32,15s3.71,22.43,15,25.32c10.55,2.69,23-4,25.32-15S749,434.89,737.66,432Z"/><circle cx="585.32" cy="412.74" r="20.26"/><circle cx="734.19" cy="451.36" r="20.3"/><circle class="cls-7" cx="739.49" cy="449.55" r="11.57"/><circle class="cls-7" cx="723.69" cy="459.31" r="4.17"/><ellipse class="cls-7" cx="591.17" cy="411.05" rx="11.4" ry="11.99" transform="translate(-117.54 283.86) rotate(-24.64)"/><circle class="cls-7" cx="575.42" cy="420.3" r="4.16"/></svg>
