<svg xmlns="http://www.w3.org/2000/svg" viewBox="0 0 1080 1080"><defs><style>.cls-1{fill:#eeb584;stroke-width:5px;}.cls-1,.cls-9{stroke:#8a360d;stroke-miterlimit:10;}.cls-2{fill:#8a3600;opacity:0.35;}.cls-3,.cls-4{fill:#8a360d;}.cls-4,.cls-7{opacity:0.5;}.cls-5{fill:#52de63;}.cls-6,.cls-7{fill:#fff;}.cls-8{font-size:859.37px;font-family:Abandoned-Regular, Abandoned;letter-spacing:0.02em;}.cls-9{fill:#fee5cc;stroke-width:3px;}</style></defs><g id="O"><path class="cls-1" d="M732.78,651.74c25-58,17-140.51-29.52-204.76,34.77-12.58,64.06-37.64,80.08-72.66,33.17-72.55-3.09-160.22-81-195.84s-167.91-5.67-201.08,66.87c-16,35-15.81,73.48-2.62,108C419.54,360,351.6,407.59,324.53,465.07c-51.15,108.63,42.37,255.28,86.3,258.78,14.65,1.17,26.88-13.34,44.73-6.53,19.53,7.46,19.47,30.41,32.44,41.81C523.77,790.58,686.5,758.93,732.78,651.74Z"/><path class="cls-2" d="M582.24,276.47c-8.85-4.05-20.89-.14-24.66,9.19s-.3,20.32,9.18,24.66c8.86,4,20.9.14,24.67-9.19S591.73,280.81,582.24,276.47Z"/><path class="cls-2" d="M707.16,334.41c-8.85-4.05-20.89-.14-24.66,9.18s-.3,20.33,9.19,24.66c8.85,4.05,20.89.15,24.66-9.18S716.65,338.75,707.16,334.41Z"/><path class="cls-3" d="M399.63,723.87l-29.69,64.94-8.38,18.32a3.09,3.09,0,0,0,1.07,4.11,3,3,0,0,0,4.11-1.08l29.69-64.94,8.38-18.32a3.1,3.1,0,0,0-1.08-4.11,3,3,0,0,0-4.1,1.08Z"/><path class="cls-3" d="M365.66,806.06l-50.77-23.22a3.08,3.08,0,0,0-4.1,1.08,3,3,0,0,0,1.07,4.1l50.77,23.22a3.1,3.1,0,0,0,4.11-1.08,3,3,0,0,0-1.08-4.1Z"/><path class="cls-3" d="M490,765.2l-29.69,64.93L452,848.46a3.1,3.1,0,0,0,1.07,4.11,3,3,0,0,0,4.11-1.08l29.69-64.94,8.38-18.32a3.1,3.1,0,0,0-1.08-4.11,3,3,0,0,0-4.1,1.08Z"/><path class="cls-3" d="M453,852.57l50.77,23.21a3.1,3.1,0,0,0,4.11-1.08,3,3,0,0,0-1.08-4.1l-50.77-23.22a3.08,3.08,0,0,0-4.1,1.08,3,3,0,0,0,1.07,4.11Z"/><path class="cls-3" d="M702.61,177.94a291.14,291.14,0,0,1,11.93-57.45c.58-1.85-2.32-2.64-2.89-.8a295.38,295.38,0,0,0-12,58.25c-.2,1.92,2.8,1.91,3,0Z"/><path class="cls-3" d="M706,176.55c8.13-15.55,27.12-19.92,42.77-23.6,1.88-.45,1.08-3.34-.8-2.9-16.44,3.87-36,8.7-44.57,25-.89,1.71,1.7,3.23,2.6,1.51Z"/><path class="cls-3" d="M462.49,384.79a101.52,101.52,0,0,0-30.68,15.77c-1.52,1.15,0,3.75,1.51,2.59a99.19,99.19,0,0,1,30-15.47c1.83-.58,1-3.47-.8-2.89Z"/><path class="cls-3" d="M468.05,401.75a32.15,32.15,0,0,0-23.6,17.67c-.83,1.73,1.76,3.26,2.59,1.51a29.38,29.38,0,0,1,21.81-16.28c1.9-.31,1.1-3.2-.8-2.9Z"/><path class="cls-3" d="M476.12,416.61a75.63,75.63,0,0,0-23,19.93,1.51,1.51,0,0,0,.54,2.06,1.54,1.54,0,0,0,2.05-.54,72.09,72.09,0,0,1,22-18.86,1.5,1.5,0,0,0-1.51-2.59Z"/><path class="cls-3" d="M713.82,522.68a85.25,85.25,0,0,1,10.66,47.49c-.13,1.93,2.87,1.92,3,0a88,88,0,0,0-11.07-49,1.5,1.5,0,0,0-2.59,1.51Z"/><path class="cls-3" d="M697.64,529.71a96.82,96.82,0,0,1,7,42.09c-.12,1.93,2.88,1.93,3,0a98.8,98.8,0,0,0-7.11-42.89c-.72-1.76-3.62-1-2.89.8Z"/><path class="cls-3" d="M334.48,512.66a156.35,156.35,0,0,0,.29,53.51,152.19,152.19,0,0,0,3.5,15.06,1.5,1.5,0,0,0,2.89-.79,153.08,153.08,0,0,1-5.53-52,147.55,147.55,0,0,1,1.75-15c.31-1.88-2.58-2.7-2.9-.79Z"/><path class="cls-3" d="M350.44,520a72.13,72.13,0,0,0,5.4,44.54c.81,1.75,3.4.22,2.59-1.52a68.63,68.63,0,0,1-5.1-42.22c.38-1.89-2.51-2.69-2.89-.8Z"/><path class="cls-3" d="M697.44,670a259.92,259.92,0,0,1-38.86,31.14c-1.61,1-.11,3.65,1.51,2.59a264.45,264.45,0,0,0,39.47-31.6c1.39-1.35-.74-3.47-2.12-2.13Z"/><path class="cls-3" d="M670.84,671.74A157.37,157.37,0,0,1,641,694.15a1.5,1.5,0,0,0,1.52,2.59A160.72,160.72,0,0,0,673,673.86c1.4-1.33-.72-3.45-2.12-2.12Z"/><path class="cls-3" d="M648.8,669.14l-21.12,15.54a1.54,1.54,0,0,0-.54,2.05,1.51,1.51,0,0,0,2.05.54l21.12-15.54a1.56,1.56,0,0,0,.54-2.06,1.51,1.51,0,0,0-2.05-.53Z"/><path class="cls-4" d="M789.42,288c2.3,12,13,63.94-12.29,105.2-35.81,58.4-118.44,70.78-120,67.39-.82-1.81,21.57-8.07,48.82-31.81,16.4-14.28,47.33-41.22,57.24-86.5,10.78-49.29-10.09-89.52-15.72-100-28.53-53.07-79.62-70.48-77.15-74.7s58.62,10.21,92.87,57C781.86,250.11,787,275.61,789.42,288Z"/><path class="cls-5" d="M741.55,634.53C741.7,754.29,741,815,704.76,856.27c-53.71,61.08-142.46,62.41-185.64,63.06-43.89.66-116.7,1.75-170.47-46.58-60.37-54.25-59.65-137.42-58.79-238,.87-101,1.72-199.73,71.16-252.31,47-35.62,104.24-33.92,158.1-32.32,54.58,1.63,133.42,4,183.36,57.41C741.31,449,741.39,510.87,741.55,634.53Z"/><path class="cls-6" d="M611.28,641.49c.19,18.18.56,53-24.42,73.48-19.07,15.63-42.62,14.46-62.53,13.47-19.67-1-49.88-2.48-69.91-25.55-17.54-20.19-17.23-45.32-17-61.4.18-14.76.65-54,28.55-74.6,16.29-12.06,34.4-12.19,58.4-12.35,24.21-.17,43-.3,59.44,11.93C610.7,586.51,611.11,624.66,611.28,641.49Z"/><polygon class="cls-7" points="524.33 412.02 519.23 557.42 529.43 557.42 524.33 412.02"/><polygon class="cls-7" points="524.33 871.88 529.43 726.49 519.23 726.49 524.33 871.88"/><polygon class="cls-7" points="679.39 471.16 572.98 570.37 580.19 577.58 679.39 471.16"/><polygon class="cls-7" points="354.85 795.71 461.27 696.5 454.06 689.29 354.85 795.71"/><polygon class="cls-7" points="366.12 473.85 465.33 580.26 472.54 573.05 366.12 473.85"/><polygon class="cls-7" points="690.66 800.54 591.46 694.12 584.25 701.34 690.66 800.54"/><polygon class="cls-7" points="319.25 637.15 439.52 642.25 439.52 632.05 319.25 637.15"/><polygon class="cls-7" points="728.25 632.05 607.98 626.96 607.98 637.15 728.25 632.05"/><ellipse cx="512.27" cy="543.05" rx="6.19" ry="15.44"/><ellipse cx="538.43" cy="770.7" rx="6.19" ry="15.44"/><ellipse cx="538.43" cy="501.3" rx="15.44" ry="6.19" transform="translate(18.57 1021.82) rotate(-87.99)"/><ellipse cx="614.78" cy="567.33" rx="15.44" ry="6.19" transform="translate(-221.1 600.89) rotate(-45)"/><ellipse cx="580.02" cy="546.05" rx="15.44" ry="6.19" transform="matrix(0.5, -0.87, 0.87, 0.5, -182.88, 775.34)"/><ellipse cx="506.08" cy="747.44" rx="15.44" ry="6.19" transform="translate(-258.64 1227.01) rotate(-87.99)"/><ellipse cx="606.97" cy="739.21" rx="6.19" ry="15.44" transform="translate(-307.98 460.47) rotate(-33.67)"/><ellipse cx="611.32" cy="776.64" rx="6.19" ry="15.44" transform="translate(-328.01 469.16) rotate(-33.67)"/><ellipse cx="417.66" cy="647.91" rx="15.44" ry="6.19"/><ellipse cx="619.63" cy="665.64" rx="6.19" ry="15.44" transform="translate(-178.96 1100.69) rotate(-75.63)"/><ellipse cx="392.21" cy="611.85" rx="6.19" ry="15.44" transform="translate(-266.52 918.88) rotate(-82.33)"/><ellipse cx="439.52" cy="702.43" rx="15.44" ry="6.19" transform="translate(-360.94 488.33) rotate(-42.99)"/><ellipse cx="402.22" cy="717.49" rx="15.44" ry="6.19" transform="translate(-357.26 401.64) rotate(-38.14)"/><ellipse cx="448.26" cy="753.62" rx="15.44" ry="6.19" transform="translate(-425.89 822.48) rotate(-63.76)"/><ellipse cx="654.56" cy="589.09" rx="15.44" ry="6.19" transform="translate(-155.42 243.53) rotate(-18.88)"/><ellipse cx="627.97" cy="611.87" rx="15.44" ry="6.19" transform="translate(-111.94 141.48) rotate(-11.81)"/><ellipse cx="628.44" cy="699.33" rx="6.19" ry="15.44" transform="translate(-265.62 990.29) rotate(-66.08)"/><ellipse cx="425.97" cy="524.82" rx="6.19" ry="15.44" transform="translate(-246.34 454.92) rotate(-45)"/><ellipse cx="425.97" cy="558.49" rx="6.19" ry="15.44" transform="translate(-274.36 612.3) rotate(-57.06)"/><ellipse cx="473.38" cy="527.6" rx="6.19" ry="15.44" transform="translate(-97.97 108.06) rotate(-11.81)"/><text class="cls-8" transform="translate(256 919.37)">O</text><path class="cls-9" d="M563.15,493.3l79-136.45a21.25,21.25,0,0,0,2.91-13.52,21.47,21.47,0,0,0-7.47-13.51,22.92,22.92,0,0,0-16.48,5,21.87,21.87,0,0,0-6.45,9.44Q588.92,418.8,563.15,493.3Z"/><ellipse cx="577.56" cy="292.3" rx="17.36" ry="18.42"/><ellipse cx="702.7" cy="349.41" rx="17.36" ry="18.42"/><circle class="cls-6" cx="708.1" cy="346.86" r="9.27"/><circle class="cls-6" cx="582.77" cy="290.12" r="9.27"/><circle class="cls-6" cx="569.38" cy="298.63" r="3.77"/><circle class="cls-6" cx="694.04" cy="355.11" r="3.77"/></g></svg>