<svg version="1" xmlns="http://www.w3.org/2000/svg" width="682.667" height="682.667" viewBox="0 0 512.000000 512.000000"><path d="M248.6 60.2c1.3 6.2 2.8 12.4 3.3 13.8.8 2.4.6 2.6-2.3 2.6-12.8.2-30 6.1-42 14.4-5.7 3.8-14.7 12.8-18.5 18.3-15.2 22.3-16.6 50.6-3.6 73.7 3.5 6.2 3.8 6.6 8 11.4 1.4 1.6 2.5 3.2 2.5 3.5-.1.3-2.9 2.4-6.3 4.6-7.9 5.1-24.2 21.2-29.5 29.1-19 28.4-22.9 56.6-11.6 84.4 9.7 23.9 34.2 49.6 59.1 61.9 7.1 3.5 18 7.3 20 7 2.6-.4 2.8 1.1 2.8 22.1 0 18.9-.2 22-1.5 22.1-.8 0-6.9.1-13.4.2-8.5.1-12.1.6-12.4 1.4-.4 1.5-.2 1.5 17.2 1.5 6.5-.1 12-.3 12.3-.6.3-.3.5-10.9.5-23.6v-23l3.1-1.5c1.8-.7 5.3-3.4 8-5.9 7.7-7.4 14.8-7.3 23.2.4 3.9 3.5 9.7 6.9 11 6.4.7-.3 1.1 7.2 1 23.2 0 13 .3 23.8.8 24.1.6.4 19.3.7 27 .4 1.8-.1 2.7-.6 2.5-1.4-.3-.8-3.9-1.2-12.4-1.4-6.5-.1-12.6-.2-13.4-.2-1.3-.1-1.5-3.2-1.5-22l-.1-21.8 6.9-1.7c14.6-3.5 33.2-15.4 46.7-30.1 8.3-8.9 9.5-10.4 14.1-17.5 13.3-20.3 18.7-42.3 15.4-63.1-1.9-12.1-9-29.5-16.5-40.4-7.4-10.7-23.3-26.2-33.2-32.3l-3.7-2.3 4.5-5.7c2.4-3.1 4.9-6.2 5.4-6.9 3.1-3.9 7.5-16 9.5-26.3.7-3.3.7-16.8.1-20-3.6-17.8-9.6-29.1-21.5-40.5-12.6-12.1-30.9-20.4-47.9-21.8-3.5-.2-6.5-.6-6.7-.8-.2-.2.3-2.2 1-4.4.9-2.6 3.6-6.1 7.5-9.8 3.4-3.2 6-6 5.7-6.3-.9-1-12 10.2-13.5 13.6-.9 1.9-1.6 3.8-1.6 4.2-.1.3-.4.9-.7 1.2-.6.7-5.6-19.8-5.8-24.2-.1-.6-.5-1.2-1-1.2s.2 5.1 1.5 11.2z"/></svg>